<svg xmlns="http://www.w3.org/2000/svg" width="1040" height="330" viewBox="0 0 1040 330" font-family="Menlo,Consolas,monospace"><defs><clipPath id="plot-clip"><rect x="62" y="46" width="960" height="242"/></clipPath></defs><rect width="1040" height="330" fill="#ffffff"/><text x="62" y="18" font-size="13" fill="#111">c6 — GPU power over time</text><text x="62" y="33" font-size="10" fill="#666">thinkstationpgx-2ff1 — 2026-08-31T08:39:31.641Z — 169 samples @ 0.499 s — peak 40.0 W</text><g clip-path="url(#plot-clip)"><rect x="62.3" y="46" width="115.9" height="242" fill="#000000" opacity="0.06"/><rect x="906.4" y="46" width="115.6" height="242" fill="#000000" opacity="0.06"/><line x1="62" y1="288.0" x2="1022" y2="288.0" stroke="#e3e3e3" stroke-width="1"/><line x1="62" y1="239.6" x2="1022" y2="239.6" stroke="#e3e3e3" stroke-width="1"/><line x1="62" y1="191.2" x2="1022" y2="191.2" stroke="#e3e3e3" stroke-width="1"/><line x1="62" y1="142.8" x2="1022" y2="142.8" stroke="#e3e3e3" stroke-width="1"/><line x1="62" y1="94.4" x2="1022" y2="94.4" stroke="#e3e3e3" stroke-width="1"/><line x1="62" y1="46.0" x2="1022" y2="46.0" stroke="#e3e3e3" stroke-width="1"/><line x1="62.0" y1="46" x2="62.0" y2="288" stroke="#f0f0f0" stroke-width="1"/><line x1="293.1" y1="46" x2="293.1" y2="288" stroke="#f0f0f0" stroke-width="1"/><line x1="524.2" y1="46" x2="524.2" y2="288" stroke="#f0f0f0" stroke-width="1"/><line x1="755.3" y1="46" x2="755.3" y2="288" stroke="#f0f0f0" stroke-width="1"/><line x1="986.3" y1="46" x2="986.3" y2="288" stroke="#f0f0f0" stroke-width="1"/><line x1="62" y1="114.1" x2="1022" y2="114.1" stroke="#d0342c" opacity="0.45" stroke-dasharray="5,4" stroke-width="1"/><polyline fill="none" stroke="#d0342c" stroke-width="1.8" points="62.3,240.7 68.1,240.5 73.9,240.7 79.6,240.7 85.4,240.7 91.2,240.7 97.0,240.5 102.8,240.5 108.5,240.3 114.3,240.2 120.1,240.1 125.9,240.3 131.6,240.4 137.4,240.5 143.2,240.6 149.0,240.6 154.7,240.9 160.5,241.0 166.3,240.9 172.1,240.8 177.9,240.7 178.2,240.7 184.3,190.1 190.1,139.9 195.8,136.0 201.7,126.9 207.5,112.6 213.2,107.4 219.0,109.1 224.9,108.8 230.5,108.8 236.4,109.0 242.2,109.0 248.0,108.8 253.6,102.8 259.6,102.6 265.4,108.3 271.0,98.9 276.9,94.6 282.9,103.7 288.3,108.0 294.1,107.8 300.0,107.1 305.7,106.9 311.6,107.0 317.3,107.9 323.1,108.0 328.8,107.2 334.5,107.8 340.3,107.6 346.1,106.7 352.0,107.2 357.8,107.6 363.6,106.7 369.5,105.9 375.1,106.2 380.9,106.0 386.7,106.0 392.5,106.4 398.3,106.0 404.1,105.2 409.6,105.8 415.5,105.3 421.4,104.5 427.1,104.7 432.7,104.8 438.7,105.0 444.5,104.7 450.2,104.8 455.9,105.5 461.7,104.6 467.5,104.3 473.3,105.2 479.0,104.8 484.8,103.6 490.6,104.5 496.4,104.5 502.1,103.8 507.9,104.3 513.7,103.9 519.5,103.1 525.1,103.4 531.1,103.5 536.8,103.1 542.7,102.9 548.2,102.7 554.2,102.7 559.9,102.5 565.8,102.4 571.5,103.2 577.2,103.1 583.0,102.2 588.7,103.2 594.5,103.2 600.3,102.0 606.1,102.1 611.9,102.8 617.8,110.4 623.5,120.0 629.2,122.3 635.1,122.5 640.8,122.0 646.5,122.1 652.3,122.0 658.1,122.2 663.9,121.7 669.7,121.8 675.4,122.0 681.3,122.0 687.1,122.1 692.7,121.6 698.6,121.0 704.4,121.0 710.1,121.0 715.9,121.3 721.7,121.7 727.4,121.4 733.3,121.4 739.0,121.6 744.8,121.4 750.7,121.6 756.3,121.5 762.2,120.9 767.9,120.8 773.7,120.7 779.5,120.9 785.3,120.9 791.0,121.0 796.7,121.0 802.6,120.4 808.4,120.5 814.1,120.4 820.0,120.2 825.6,120.4 831.4,120.2 837.3,119.9 843.0,119.6 848.8,119.7 854.5,120.2 860.3,120.0 866.1,120.1 872.0,120.3 877.6,122.1 883.5,124.6 889.2,124.8 895.0,124.5 900.7,124.4 906.1,128.9 906.4,132.7 912.2,184.7 918.0,231.3 923.8,232.2 929.6,232.0 935.3,232.1 941.1,232.8 946.9,233.3 952.6,233.5 958.4,233.5 964.2,233.4 970.0,233.7 975.8,233.8 981.5,233.8 987.3,233.9 993.1,234.2 998.9,234.1 1004.6,233.7 1010.4,233.8 1016.2,233.8 1022.0,234.1"/></g><line x1="62" y1="288" x2="1022" y2="288" stroke="#999" stroke-width="1"/><line x1="62" y1="46" x2="62" y2="288" stroke="#999" stroke-width="1"/><text x="56" y="291.0" font-size="9" fill="#555" text-anchor="end">0</text><text x="56" y="242.6" font-size="9" fill="#555" text-anchor="end">10</text><text x="56" y="194.2" font-size="9" fill="#555" text-anchor="end">20</text><text x="56" y="145.8" font-size="9" fill="#555" text-anchor="end">30</text><text x="56" y="97.4" font-size="9" fill="#555" text-anchor="end">40</text><text x="56" y="49.0" font-size="9" fill="#555" text-anchor="end">50</text><text x="62.0" y="302" font-size="9" fill="#555" text-anchor="middle">0</text><text x="293.1" y="302" font-size="9" fill="#555" text-anchor="middle">20</text><text x="524.2" y="302" font-size="9" fill="#555" text-anchor="middle">40</text><text x="755.3" y="302" font-size="9" fill="#555" text-anchor="middle">60</text><text x="986.3" y="302" font-size="9" fill="#555" text-anchor="middle">80</text><text x="1022" y="316" font-size="10" fill="#444" text-anchor="end">s</text><text x="10" y="50" font-size="10" fill="#444">W</text><text x="66.3" y="58" font-size="9" fill="#888">idle_before</text><text x="910.4" y="58" font-size="9" fill="#888">idle_after</text><text x="1018" y="110.1" font-size="9" fill="#b03028" text-anchor="end">load · moyenne 35.9 W</text></svg>
