<svg xmlns="http://www.w3.org/2000/svg" width="1040" height="330" viewBox="0 0 1040 330" font-family="Menlo,Consolas,monospace"><rect width="1040" height="330" fill="#ffffff"/><text x="62" y="18" font-size="13" fill="#111">c2 — GPU power over time</text><text x="62" y="33" font-size="10" fill="#666">thinkstationpgx-2ff1 — 2026-08-31T08:44:14.983Z — 237 samples</text><rect x="62.2" y="46" width="82.2" height="242" fill="#000000" opacity="0.06"/><text x="65.2" y="57" font-size="9" fill="#888">idle_before</text><rect x="940.0" y="46" width="82.0" height="242" fill="#000000" opacity="0.06"/><text x="943.0" y="57" font-size="9" fill="#888">idle_after</text><line x1="62" y1="288.0" x2="1022" y2="288.0" stroke="#e3e3e3" stroke-width="1"/><text x="56" y="291.0" font-size="9" fill="#555" text-anchor="end">0</text><line x1="62" y1="227.5" x2="1022" y2="227.5" stroke="#e3e3e3" stroke-width="1"/><text x="56" y="230.5" font-size="9" fill="#555" text-anchor="end">5</text><line x1="62" y1="167.0" x2="1022" y2="167.0" stroke="#e3e3e3" stroke-width="1"/><text x="56" y="170.0" font-size="9" fill="#555" text-anchor="end">10</text><line x1="62" y1="106.5" x2="1022" y2="106.5" stroke="#e3e3e3" stroke-width="1"/><text x="56" y="109.5" font-size="9" fill="#555" text-anchor="end">15</text><line x1="62" y1="46.0" x2="1022" y2="46.0" stroke="#e3e3e3" stroke-width="1"/><text x="56" y="49.0" font-size="9" fill="#555" text-anchor="end">20</text><line x1="62.0" y1="46" x2="62.0" y2="288" stroke="#f0f0f0" stroke-width="1"/><text x="62.0" y="302" font-size="9" fill="#555" text-anchor="middle">0</text><line x1="226.0" y1="46" x2="226.0" y2="288" stroke="#f0f0f0" stroke-width="1"/><text x="226.0" y="302" font-size="9" fill="#555" text-anchor="middle">20</text><line x1="390.0" y1="46" x2="390.0" y2="288" stroke="#f0f0f0" stroke-width="1"/><text x="390.0" y="302" font-size="9" fill="#555" text-anchor="middle">40</text><line x1="553.9" y1="46" x2="553.9" y2="288" stroke="#f0f0f0" stroke-width="1"/><text x="553.9" y="302" font-size="9" fill="#555" text-anchor="middle">60</text><line x1="717.9" y1="46" x2="717.9" y2="288" stroke="#f0f0f0" stroke-width="1"/><text x="717.9" y="302" font-size="9" fill="#555" text-anchor="middle">80</text><line x1="881.9" y1="46" x2="881.9" y2="288" stroke="#f0f0f0" stroke-width="1"/><text x="881.9" y="302" font-size="9" fill="#555" text-anchor="middle">100</text><line x1="62" y1="288" x2="1022" y2="288" stroke="#999" stroke-width="1"/><text x="1022" y="318" font-size="10" fill="#444" text-anchor="end">s</text><text x="10" y="32" font-size="10" fill="#444">W</text><polyline fill="none" stroke="#3b6fb5" stroke-width="1" opacity="0.75" points="62.2,141.7 66.3,142.6 70.4,144.4 74.5,146.2 78.6,146.8 82.7,146.7 86.8,146.3 90.9,146.8 95.0,147.2 99.1,147.6 103.2,148.4 107.3,148.6 111.4,148.5 115.5,148.7 119.6,149.3 123.7,149.5 127.8,149.5 131.9,149.3 136.0,149.5 140.1,149.9 144.2,150.3 144.4,150.3 148.8,14.3 152.9,-118.1 157.0,-114.9 161.1,-129.8 165.2,-129.2 169.3,-114.6 173.3,-124.7 177.5,-156.8 181.6,-148.7 185.7,-117.7 189.9,-118.3 193.9,-119.2 198.0,-120.1 202.1,-120.3 206.2,-149.1 210.3,-148.6 214.4,-121.5 218.4,-122.8 222.6,-122.4 226.7,-122.3 230.8,-121.9 234.9,-122.4 238.9,-123.4 243.0,-122.8 247.2,-123.3 251.3,-123.8 255.4,-123.6 259.5,-123.8 263.6,-123.2 267.8,-123.6 271.8,-124.1 275.9,-125.2 280.0,-125.6 284.1,-124.9 288.3,-124.9 292.3,-126.1 296.4,-126.3 300.4,-125.7 304.5,-124.6 308.7,-125.0 312.8,-125.2 316.9,-125.8 321.0,-126.5 325.1,-126.3 329.2,-126.5 333.3,-127.3 337.4,-128.0 341.5,-127.5 345.5,-125.3 349.7,-125.0 353.8,-127.9 357.9,-128.2 362.0,-126.9 366.1,-126.5 370.1,-126.1 374.4,-125.9 378.3,-127.3 382.5,-129.0 386.6,-128.2 390.6,-128.0 394.8,-128.4 398.9,-128.7 403.0,-129.0 407.1,-129.1 411.2,-129.6 415.3,-129.2 419.4,-129.6 423.5,-130.2 427.6,-131.1 431.6,-131.9 435.8,-131.0 439.9,-130.1 443.9,-130.9 448.1,-131.9 452.2,-131.6 456.3,-131.1 460.4,-131.5 464.5,-131.1 468.6,-131.0 472.7,-130.3 476.8,-129.7 480.8,-159.8 485.0,-159.0 489.0,-130.1 493.1,-131.4 497.3,-131.0 501.4,-130.4 505.5,-131.0 509.6,-131.1 513.6,-136.5 517.9,-165.4 521.9,-160.7 526.0,-133.4 530.2,-134.8 534.2,-132.1 538.3,-129.6 542.4,-131.7 546.4,-133.3 550.6,-134.0 554.6,-133.2 558.8,-132.8 562.9,-132.8 567.0,-133.1 571.1,-133.2 575.1,-132.6 579.2,-133.8 583.4,-134.3 587.5,-132.1 591.6,-131.6 595.7,-132.4 599.8,-132.8 603.8,-132.6 608.0,-132.2 612.0,-132.0 616.2,-133.2 620.2,-133.9 624.4,-133.7 628.5,-132.8 632.6,-132.0 636.7,-133.7 640.8,-134.4 644.9,-134.5 649.0,-134.2 653.0,-133.8 657.1,-150.5 661.3,-166.7 665.3,-151.8 669.4,-132.7 673.5,-133.4 677.7,-132.0 681.7,-130.9 685.9,-131.7 690.0,-132.8 694.1,-133.2 698.1,-132.0 702.3,-132.2 706.3,-132.1 710.5,-131.4 714.5,-131.7 718.7,-132.4 722.8,-133.4 726.9,-134.2 731.0,-134.2 735.1,-133.1 739.1,-132.6 743.2,-132.2 747.3,-132.1 751.4,-133.1 755.5,-132.7 759.7,-132.0 763.7,-132.5 767.8,-132.7 771.9,-132.2 776.1,-132.1 780.1,-133.1 784.3,-134.3 788.4,-134.0 792.4,-132.5 796.6,-132.2 800.6,-132.2 804.8,-132.1 808.8,-133.1 812.9,-133.7 817.0,-150.5 821.1,-168.0 825.3,-153.4 829.4,-133.0 833.4,-133.0 837.6,-132.4 841.7,-132.2 845.7,-133.0 849.8,-132.7 853.9,-132.1 858.0,-131.5 862.1,-131.4 866.2,-131.1 870.3,-130.3 874.4,-129.9 878.5,-129.7 882.6,-131.3 886.7,-131.7 890.8,-131.7 894.9,-131.3 899.0,-129.9 903.1,-131.3 907.2,-133.0 911.2,-131.7 915.4,-131.6 919.5,-132.7 923.6,-133.3 927.7,-133.3 931.8,-132.4 935.9,-131.4 939.8,-128.2 940.0,-123.3 944.1,5.0 948.2,130.8 952.3,133.0 956.4,134.1 960.5,134.9 964.6,135.4 968.7,136.0 972.8,136.8 976.9,137.1 981.0,138.2 985.1,139.9 989.2,140.9 993.3,141.2 997.4,141.7 1001.5,141.7 1005.6,142.6 1009.7,143.9 1013.8,144.3 1017.9,144.6 1022.0,145.1"/><polyline fill="none" stroke="#d0342c" stroke-width="1.8" points="62.2,141.7 66.3,142.6 70.4,144.4 74.5,146.2 78.6,146.8 82.7,146.7 86.8,146.3 90.9,146.8 95.0,147.2 99.1,147.6 103.2,148.4 107.3,148.6 111.4,148.5 115.5,148.7 119.6,149.3 123.7,149.5 127.8,149.5 131.9,149.3 136.0,149.5 140.1,149.9 144.2,150.3 144.4,150.3 148.8,14.3 152.9,-118.1 157.0,-114.9 161.1,-129.8 165.2,-129.2 169.3,-114.6 173.3,-124.7 177.5,-156.8 181.6,-148.7 185.7,-117.7 189.9,-118.3 193.9,-119.2 198.0,-120.1 202.1,-120.3 206.2,-149.1 210.3,-148.6 214.4,-121.5 218.4,-122.8 222.6,-122.4 226.7,-122.3 230.8,-121.9 234.9,-122.4 238.9,-123.4 243.0,-122.8 247.2,-123.3 251.3,-123.8 255.4,-123.6 259.5,-123.8 263.6,-123.2 267.8,-123.6 271.8,-124.1 275.9,-125.2 280.0,-125.6 284.1,-124.9 288.3,-124.9 292.3,-126.1 296.4,-126.3 300.4,-125.7 304.5,-124.6 308.7,-125.0 312.8,-125.2 316.9,-125.8 321.0,-126.5 325.1,-126.3 329.2,-126.5 333.3,-127.3 337.4,-128.0 341.5,-127.5 345.5,-125.3 349.7,-125.0 353.8,-127.9 357.9,-128.2 362.0,-126.9 366.1,-126.5 370.1,-126.1 374.4,-125.9 378.3,-127.3 382.5,-129.0 386.6,-128.2 390.6,-128.0 394.8,-128.4 398.9,-128.7 403.0,-129.0 407.1,-129.1 411.2,-129.6 415.3,-129.2 419.4,-129.6 423.5,-130.2 427.6,-131.1 431.6,-131.9 435.8,-131.0 439.9,-130.1 443.9,-130.9 448.1,-131.9 452.2,-131.6 456.3,-131.1 460.4,-131.5 464.5,-131.1 468.6,-131.0 472.7,-130.3 476.8,-129.7 480.8,-159.8 485.0,-159.0 489.0,-130.1 493.1,-131.4 497.3,-131.0 501.4,-130.4 505.5,-131.0 509.6,-131.1 513.6,-136.5 517.9,-165.4 521.9,-160.7 526.0,-133.4 530.2,-134.8 534.2,-132.1 538.3,-129.6 542.4,-131.7 546.4,-133.3 550.6,-134.0 554.6,-133.2 558.8,-132.8 562.9,-132.8 567.0,-133.1 571.1,-133.2 575.1,-132.6 579.2,-133.8 583.4,-134.3 587.5,-132.1 591.6,-131.6 595.7,-132.4 599.8,-132.8 603.8,-132.6 608.0,-132.2 612.0,-132.0 616.2,-133.2 620.2,-133.9 624.4,-133.7 628.5,-132.8 632.6,-132.0 636.7,-133.7 640.8,-134.4 644.9,-134.5 649.0,-134.2 653.0,-133.8 657.1,-150.5 661.3,-166.7 665.3,-151.8 669.4,-132.7 673.5,-133.4 677.7,-132.0 681.7,-130.9 685.9,-131.7 690.0,-132.8 694.1,-133.2 698.1,-132.0 702.3,-132.2 706.3,-132.1 710.5,-131.4 714.5,-131.7 718.7,-132.4 722.8,-133.4 726.9,-134.2 731.0,-134.2 735.1,-133.1 739.1,-132.6 743.2,-132.2 747.3,-132.1 751.4,-133.1 755.5,-132.7 759.7,-132.0 763.7,-132.5 767.8,-132.7 771.9,-132.2 776.1,-132.1 780.1,-133.1 784.3,-134.3 788.4,-134.0 792.4,-132.5 796.6,-132.2 800.6,-132.2 804.8,-132.1 808.8,-133.1 812.9,-133.7 817.0,-150.5 821.1,-168.0 825.3,-153.4 829.4,-133.0 833.4,-133.0 837.6,-132.4 841.7,-132.2 845.7,-133.0 849.8,-132.7 853.9,-132.1 858.0,-131.5 862.1,-131.4 866.2,-131.1 870.3,-130.3 874.4,-129.9 878.5,-129.7 882.6,-131.3 886.7,-131.7 890.8,-131.7 894.9,-131.3 899.0,-129.9 903.1,-131.3 907.2,-133.0 911.2,-131.7 915.4,-131.6 919.5,-132.7 923.6,-133.3 927.7,-133.3 931.8,-132.4 935.9,-131.4 939.8,-128.2 940.0,-123.3 944.1,5.0 948.2,130.8 952.3,133.0 956.4,134.1 960.5,134.9 964.6,135.4 968.7,136.0 972.8,136.8 976.9,137.1 981.0,138.2 985.1,139.9 989.2,140.9 993.3,141.2 997.4,141.7 1001.5,141.7 1005.6,142.6 1009.7,143.9 1013.8,144.3 1017.9,144.6 1022.0,145.1"/></svg>
